<svg width="212" height="212" viewBox="0 0 212 212" fill="none" xmlns="http://www.w3.org/2000/svg">
<circle cx="106" cy="106" r="81" fill="white"/>
<path d="M79.3846 93.243C79.1343 90.6132 80.6334 88.1291 83.0768 87.1249L109.559 76.2414C111.943 75.2616 114.686 75.9139 116.374 77.8617L134.998 99.3543C136.704 101.322 136.945 104.165 135.596 106.392L120.96 130.553C119.613 132.777 116.987 133.88 114.456 133.286L86.6737 126.761C84.1678 126.172 82.3164 124.051 82.0726 121.488L79.3846 93.243Z" fill="black"/>
<path fill-rule="evenodd" clip-rule="evenodd" d="M85.9578 191.322C133.082 202.39 180.255 173.161 191.322 126.037C202.39 78.9132 173.161 31.7398 126.037 20.6723C78.9132 9.60472 31.7399 38.834 20.6723 85.9577C9.60478 133.081 38.8341 180.255 85.9578 191.322ZM154.02 158.696C156.01 159.195 158.129 158.656 159.553 157.181C166.936 149.529 172.686 140.209 176.222 129.631C176.874 127.68 176.37 125.545 175.003 124.01L158.328 105.294C156.552 103.3 156.307 100.372 157.728 98.1105L171.05 76.9092C172.149 75.1605 172.287 72.9607 171.306 71.143C166.195 61.6658 159.028 53.342 150.265 46.8218C148.613 45.593 146.425 45.4071 144.539 46.2314L121.545 56.2797C119.106 57.3459 116.255 56.6767 114.544 54.636L98.4122 35.3895C97.0899 33.812 95.0479 33.0048 93.0223 33.37C82.2753 35.3074 72.1501 39.5672 63.3537 45.7799C61.6663 46.9717 60.8111 49.004 61.0176 51.0595L63.5219 75.9874C63.7888 78.6439 62.2683 81.1571 59.7914 82.1536L36.5196 91.5159C34.6105 92.2839 33.2104 93.9748 32.9289 96.0132C31.4061 107.041 32.4116 117.942 35.5957 128.06C36.2123 130.019 37.872 131.448 39.8783 131.887L64.4297 137.262C67.0341 137.832 68.9499 140.053 69.1325 142.712L70.8472 167.69C70.9882 169.744 72.1646 171.597 74.0147 172.5C78.7917 174.83 83.8638 176.705 89.2707 177.975C94.6737 179.244 100.047 179.829 105.347 179.876C107.406 179.894 109.287 178.759 110.329 176.982L123 155.363C124.348 153.064 127.052 151.929 129.637 152.578L154.02 158.696Z" fill="black"/>
</svg>
